<svg xmlns="http://www.w3.org/2000/svg" width="1200" height="800" viewBox="0 0 1200 800">
  <defs>
    <linearGradient id="sky" x1="0%" y1="0%" x2="0%" y2="100%">
      <stop offset="0%" style="stop-color:#0a1628"/>
      <stop offset="50%" style="stop-color:#0f4c81"/>
      <stop offset="100%" style="stop-color:#1a6bb5"/>
    </linearGradient>
    <linearGradient id="sun" x1="0%" y1="0%" x2="0%" y2="100%">
      <stop offset="0%" style="stop-color:#e8a838"/>
      <stop offset="100%" style="stop-color:#c98a1e"/>
    </linearGradient>
  </defs>
  <rect width="1200" height="800" fill="url(#sky)"/>
  <circle cx="900" cy="250" r="80" fill="url(#sun)" opacity="0.9"/>
  <path d="M0 600 Q200 550 400 600 Q600 650 800 580 Q1000 520 1200 590 L1200 800 L0 800 Z" fill="#0a1628" opacity="0.5"/>
  <path d="M0 650 Q300 580 600 640 Q900 700 1200 630 L1200 800 L0 800 Z" fill="#0a1628" opacity="0.7"/>
  <g opacity="0.15">
    <rect x="100" y="350" width="8" height="60" rx="4" fill="#fff"/>
    <rect x="150" y="320" width="6" height="50" rx="3" fill="#fff"/>
    <rect x="200" y="370" width="10" height="70" rx="5" fill="#fff"/>
    <rect x="250" y="340" width="7" height="55" rx="3.5" fill="#fff"/>
    <rect x="300" y="360" width="9" height="65" rx="4.5" fill="#fff"/>
  </g>
  <text x="50" y="720" font-family="Georgia, serif" font-size="24" fill="#e8a838" opacity="0.3">KUB FAJAR SAMUDRA</text>
</svg>
